<mxfile host="app.diagrams.net" modified="2023-04-06T21:02:56.092Z" agent="Mozilla/5.0 (Macintosh; Intel Mac OS X 10_15_7) AppleWebKit/537.36 (KHTML, like Gecko) Chrome/111.0.0.0 Safari/537.36" etag="Sou4dHfZri-llpQJUcbo" version="21.1.4" type="device">
  <diagram id="aZzCiTEgSDXypdaJf5oC" name="Page-1">
    <mxGraphModel dx="3279" dy="547" grid="1" gridSize="10" guides="1" tooltips="1" connect="1" arrows="1" fold="1" page="1" pageScale="1" pageWidth="827" pageHeight="1169" math="0" shadow="0">
      <root>
        <mxCell id="0" />
        <mxCell id="1" parent="0" />
        <mxCell id="qEZxZb18fNbEGhvGFvHe-20" value="" style="rounded=1;whiteSpace=wrap;html=1;arcSize=5;imageHeight=24;fillColor=#F5F5F5;" parent="1" vertex="1">
          <mxGeometry x="-2470" y="190" width="520" height="670" as="geometry" />
        </mxCell>
        <mxCell id="qcJDbEwE1XpdXQrslt51-1" value="" style="rounded=1;whiteSpace=wrap;html=1;arcSize=5;imageHeight=24;" parent="1" vertex="1">
          <mxGeometry x="-2460" y="220" width="500" height="630" as="geometry" />
        </mxCell>
        <mxCell id="qcJDbEwE1XpdXQrslt51-2" value="" style="rounded=1;whiteSpace=wrap;html=1;arcSize=5;fillColor=#EDEDED;" parent="1" vertex="1">
          <mxGeometry x="-2450" y="250" width="480" height="590" as="geometry" />
        </mxCell>
        <mxCell id="qcJDbEwE1XpdXQrslt51-55" value="" style="rounded=1;whiteSpace=wrap;html=1;arcSize=5;" parent="1" vertex="1">
          <mxGeometry x="-2440" y="280" width="460" height="490" as="geometry" />
        </mxCell>
        <mxCell id="qcJDbEwE1XpdXQrslt51-10" value="" style="rounded=1;whiteSpace=wrap;html=1;arcSize=5;fillColor=#CCCCCC;" parent="1" vertex="1">
          <mxGeometry x="-2430" y="310" width="440" height="390" as="geometry" />
        </mxCell>
        <mxCell id="qcJDbEwE1XpdXQrslt51-26" value="" style="rounded=1;whiteSpace=wrap;html=1;arcSize=30;imageHeight=24;" parent="1" vertex="1">
          <mxGeometry x="-2440" y="780" width="460" height="50" as="geometry" />
        </mxCell>
        <mxCell id="qcJDbEwE1XpdXQrslt51-6" value="" style="rounded=1;whiteSpace=wrap;html=1;arcSize=28;imageHeight=24;fillColor=#F0F0F0;" parent="1" vertex="1">
          <mxGeometry x="-2430" y="710" width="440" height="50" as="geometry" />
        </mxCell>
        <mxCell id="qcJDbEwE1XpdXQrslt51-17" value="kernel space" style="text;html=1;strokeColor=none;fillColor=none;align=center;verticalAlign=middle;whiteSpace=wrap;rounded=0;" parent="1" vertex="1">
          <mxGeometry x="-2415" y="710" width="85" height="30" as="geometry" />
        </mxCell>
        <mxCell id="qcJDbEwE1XpdXQrslt51-18" value="user space" style="text;html=1;strokeColor=none;fillColor=none;align=center;verticalAlign=middle;whiteSpace=wrap;rounded=0;" parent="1" vertex="1">
          <mxGeometry x="-2405" y="420" width="95" height="30" as="geometry" />
        </mxCell>
        <mxCell id="qcJDbEwE1XpdXQrslt51-24" value="software" style="text;html=1;strokeColor=none;fillColor=none;align=center;verticalAlign=middle;whiteSpace=wrap;rounded=0;" parent="1" vertex="1">
          <mxGeometry x="-2430" y="250" width="60" height="30" as="geometry" />
        </mxCell>
        <mxCell id="qcJDbEwE1XpdXQrslt51-25" value="hardware" style="text;html=1;strokeColor=none;fillColor=none;align=center;verticalAlign=middle;whiteSpace=wrap;rounded=0;" parent="1" vertex="1">
          <mxGeometry x="-2440" y="220" width="60" height="30" as="geometry" />
        </mxCell>
        <mxCell id="qcJDbEwE1XpdXQrslt51-54" value="firmware" style="text;html=1;strokeColor=none;fillColor=none;align=center;verticalAlign=middle;whiteSpace=wrap;rounded=0;" parent="1" vertex="1">
          <mxGeometry x="-2437.5" y="780" width="75" height="20" as="geometry" />
        </mxCell>
        <mxCell id="qcJDbEwE1XpdXQrslt51-57" value="operating system" style="text;html=1;strokeColor=none;fillColor=none;align=center;verticalAlign=middle;whiteSpace=wrap;rounded=0;" parent="1" vertex="1">
          <mxGeometry x="-2390" y="400" width="95" as="geometry" />
        </mxCell>
        <mxCell id="jprQ5lEr49byNqmnvGfp-2" value="" style="rounded=1;whiteSpace=wrap;html=1;arcSize=25;imageHeight=24;" parent="1" vertex="1">
          <mxGeometry x="-2420" y="650" width="420" height="40" as="geometry" />
        </mxCell>
        <mxCell id="jprQ5lEr49byNqmnvGfp-27" value="" style="group" parent="1" vertex="1" connectable="0">
          <mxGeometry x="-2410" y="390" width="210" height="255" as="geometry" />
        </mxCell>
        <mxCell id="qEZxZb18fNbEGhvGFvHe-15" value="" style="rounded=1;whiteSpace=wrap;html=1;arcSize=8;fillColor=#F5F5F5;" parent="jprQ5lEr49byNqmnvGfp-27" vertex="1">
          <mxGeometry x="-12.5" y="-40" width="212.5" height="290" as="geometry" />
        </mxCell>
        <mxCell id="jprQ5lEr49byNqmnvGfp-28" value="" style="rounded=1;whiteSpace=wrap;html=1;arcSize=10;imageHeight=24;" parent="jprQ5lEr49byNqmnvGfp-27" vertex="1">
          <mxGeometry width="190" height="240" as="geometry" />
        </mxCell>
        <mxCell id="jprQ5lEr49byNqmnvGfp-29" value="" style="rounded=1;whiteSpace=wrap;html=1;arcSize=10;fillColor=#E8E8E8;" parent="jprQ5lEr49byNqmnvGfp-27" vertex="1">
          <mxGeometry x="10" y="30" width="170" height="200" as="geometry" />
        </mxCell>
        <mxCell id="jprQ5lEr49byNqmnvGfp-30" value="" style="rounded=1;whiteSpace=wrap;html=1;arcSize=10;" parent="jprQ5lEr49byNqmnvGfp-27" vertex="1">
          <mxGeometry x="15" y="60" width="155" height="160" as="geometry" />
        </mxCell>
        <mxCell id="jprQ5lEr49byNqmnvGfp-31" value="" style="rounded=1;whiteSpace=wrap;html=1;arcSize=15;fillColor=#CCCCCC;" parent="jprQ5lEr49byNqmnvGfp-27" vertex="1">
          <mxGeometry x="22.5" y="90" width="137.5" height="80" as="geometry" />
        </mxCell>
        <mxCell id="jprQ5lEr49byNqmnvGfp-32" value="" style="rounded=1;whiteSpace=wrap;html=1;arcSize=20;imageHeight=24;fillColor=#F0F0F0;" parent="jprQ5lEr49byNqmnvGfp-27" vertex="1">
          <mxGeometry x="25" y="180" width="135" height="30" as="geometry" />
        </mxCell>
        <mxCell id="jprQ5lEr49byNqmnvGfp-33" value="kernel space" style="text;html=1;strokeColor=none;fillColor=none;align=center;verticalAlign=middle;whiteSpace=wrap;rounded=0;arcSize=20;" parent="jprQ5lEr49byNqmnvGfp-27" vertex="1">
          <mxGeometry x="25" y="183.87" width="85" height="22.25" as="geometry" />
        </mxCell>
        <mxCell id="jprQ5lEr49byNqmnvGfp-34" value="user &lt;br&gt;space" style="text;html=1;strokeColor=none;fillColor=none;align=center;verticalAlign=middle;whiteSpace=wrap;rounded=0;" parent="jprQ5lEr49byNqmnvGfp-27" vertex="1">
          <mxGeometry x="12.5" y="100" width="75" height="30" as="geometry" />
        </mxCell>
        <mxCell id="jprQ5lEr49byNqmnvGfp-35" value="software" style="text;html=1;strokeColor=none;fillColor=none;align=center;verticalAlign=middle;whiteSpace=wrap;rounded=0;" parent="jprQ5lEr49byNqmnvGfp-27" vertex="1">
          <mxGeometry x="16.25" y="30" width="60" height="30" as="geometry" />
        </mxCell>
        <mxCell id="jprQ5lEr49byNqmnvGfp-36" value="hardware" style="text;html=1;strokeColor=none;fillColor=none;align=center;verticalAlign=middle;whiteSpace=wrap;rounded=0;" parent="jprQ5lEr49byNqmnvGfp-27" vertex="1">
          <mxGeometry x="10" width="60" height="30" as="geometry" />
        </mxCell>
        <mxCell id="jprQ5lEr49byNqmnvGfp-37" value="OS&amp;nbsp;&amp;nbsp;" style="text;html=1;strokeColor=none;fillColor=none;align=center;verticalAlign=middle;whiteSpace=wrap;rounded=0;" parent="jprQ5lEr49byNqmnvGfp-27" vertex="1">
          <mxGeometry x="20" y="70" width="52.5" height="10" as="geometry" />
        </mxCell>
        <mxCell id="qEZxZb18fNbEGhvGFvHe-16" value="virtual machine" style="text;html=1;strokeColor=none;fillColor=none;align=center;verticalAlign=middle;whiteSpace=wrap;rounded=0;" parent="jprQ5lEr49byNqmnvGfp-27" vertex="1">
          <mxGeometry y="-40" width="90" height="20" as="geometry" />
        </mxCell>
        <mxCell id="eIyCrA_YJBkCbxsexrYI-1" value="" style="rounded=1;whiteSpace=wrap;html=1;arcSize=15;fillColor=#CCCCCC;" vertex="1" parent="jprQ5lEr49byNqmnvGfp-27">
          <mxGeometry x="72.5" y="100" width="57.5" height="60" as="geometry" />
        </mxCell>
        <mxCell id="eIyCrA_YJBkCbxsexrYI-2" value="container" style="text;html=1;strokeColor=none;fillColor=none;align=center;verticalAlign=middle;whiteSpace=wrap;rounded=0;" vertex="1" parent="jprQ5lEr49byNqmnvGfp-27">
          <mxGeometry x="80" y="101" width="45" height="20" as="geometry" />
        </mxCell>
        <mxCell id="jprQ5lEr49byNqmnvGfp-61" value="user space" style="text;html=1;strokeColor=none;fillColor=none;align=center;verticalAlign=middle;whiteSpace=wrap;rounded=0;" parent="1" vertex="1">
          <mxGeometry x="-2410" y="310" width="77.5" height="20" as="geometry" />
        </mxCell>
        <mxCell id="jprQ5lEr49byNqmnvGfp-62" value="hypervisor" style="text;html=1;strokeColor=none;fillColor=none;align=center;verticalAlign=middle;whiteSpace=wrap;rounded=0;" parent="1" vertex="1">
          <mxGeometry x="-2420" y="650" width="85" height="30" as="geometry" />
        </mxCell>
        <mxCell id="qEZxZb18fNbEGhvGFvHe-1" value="operating system" style="text;html=1;strokeColor=none;fillColor=none;align=center;verticalAlign=middle;whiteSpace=wrap;rounded=0;" parent="1" vertex="1">
          <mxGeometry x="-2415" y="280" width="110" height="30" as="geometry" />
        </mxCell>
        <mxCell id="qEZxZb18fNbEGhvGFvHe-21" value="physical machine" style="text;html=1;strokeColor=none;fillColor=none;align=center;verticalAlign=middle;whiteSpace=wrap;rounded=0;" parent="1" vertex="1">
          <mxGeometry x="-2450" y="190" width="100" height="20" as="geometry" />
        </mxCell>
      </root>
    </mxGraphModel>
  </diagram>
</mxfile>
